<svg width="24" height="24" viewBox="0 0 24 24" fill="none" xmlns="http://www.w3.org/2000/svg">
<path d="M12.1877 10.6582C12.1831 11.7235 12.1877 12.7888 12.1922 13.854C13.9781 13.9122 15.7684 13.8853 17.5544 13.9122C16.7666 17.8735 11.3776 19.1581 8.52637 16.5709C5.59458 14.3016 5.73333 9.32437 8.78149 7.21622C10.912 5.51533 13.9423 5.93604 16.0728 7.40866C16.9098 6.63436 17.6931 5.80626 18.4495 4.9469C16.6771 3.5325 14.5018 2.52541 12.1877 2.63285C7.35815 2.47169 2.91797 6.70148 2.83741 11.5311C2.52855 15.4789 5.12461 19.3506 8.79049 20.7471C12.4429 22.1526 17.1247 21.1946 19.4567 17.9137C20.9964 15.8414 21.3277 13.1737 21.1486 10.6672C18.1586 10.6447 15.1732 10.6492 12.1877 10.6582Z" fill="white"/>
</svg>
