<svg>
	<symbol id='id' viewBox="0 0 32 32" fill="none" xmlns="http://www.w3.org/2000/svg">
		<path d="M32 16C32 7.1625 24.8375 0 16 0C7.1625 0 0 7.1625 0 16C0 23.9875 5.85 30.6062 13.5 31.8062V20.625H9.4375V16H13.5V12.475C13.5 8.46563 15.8875 6.25 19.5438 6.25C21.2938 6.25 23.125 6.5625 23.125 6.5625V10.5H21.1063C19.1188 10.5 18.5 11.7344 18.5 13V16H22.9375L22.2281 20.625H18.5V31.8062C26.15 30.6062 32 23.9875 32 16Z" fill="#081444"/>
		<path d="M22.2281 20.625L22.9375 16H18.5V13C18.5 11.7344 19.1188 10.5 21.1063 10.5H23.125V6.5625C23.125 6.5625 21.2938 6.25 19.5438 6.25C15.8875 6.25 13.5 8.46563 13.5 12.475V16H9.4375V20.625H13.5V31.8062C14.3156 31.9344 15.15 32 16 32C16.85 32 17.6844 31.9344 18.5 31.8062V20.625H22.2281Z" fill="white"/>
	</symbol>
	<symbol id='vkontakte' viewBox="0 0 24 24" fill="currentColor" xmlns="http://www.w3.org/2000/svg">
		<path d="M23.8277 17.356C23.7973 17.2966 23.771 17.2457 23.7448 17.2032C23.3308 16.4779 22.5373 15.5829 21.369 14.5267L21.3428 14.5014L21.3298 14.4886L21.3167 14.4759H21.3036C20.7717 13.9839 20.436 13.653 20.2966 13.4834C20.0394 13.161 19.9827 12.8344 20.1221 12.5035C20.2223 12.2533 20.5974 11.7231 21.2426 10.9171C21.5826 10.4887 21.8529 10.1452 22.0535 9.88646C23.4877 8.02859 24.1111 6.84094 23.9191 6.32768L23.8451 6.20893C23.797 6.13681 23.6665 6.06893 23.4616 6.00957C23.2523 5.9502 22.9863 5.93745 22.6637 5.9799L19.0802 6.00535C19.0236 5.98414 18.9408 5.98838 18.8318 6.00957C18.7227 6.03502 18.6705 6.04775 18.6705 6.04775L18.6095 6.07744L18.5615 6.11562C18.5179 6.14105 18.4742 6.18347 18.4263 6.24286C18.3784 6.30226 18.3349 6.37435 18.3043 6.45495C17.9119 7.43054 17.4716 8.33825 16.9703 9.17808C16.6652 9.67859 16.3818 10.1112 16.1245 10.4802C15.8673 10.8493 15.6537 11.1165 15.4794 11.2905C15.3049 11.4644 15.148 11.6043 15.0041 11.7061C14.8647 11.8121 14.7556 11.8545 14.6816 11.8376C14.6075 11.8206 14.5378 11.8037 14.4679 11.7909C14.3503 11.7188 14.2588 11.6213 14.1889 11.4941C14.1192 11.3668 14.0713 11.2099 14.0451 11.0232C14.019 10.8323 14.0059 10.6711 14.0016 10.5311C13.9971 10.3955 14.0016 10.2003 14.0058 9.95007C14.0145 9.6998 14.019 9.53014 14.019 9.44108C14.019 9.13566 14.0233 8.80058 14.0364 8.44006C14.0495 8.07952 14.0581 7.79534 14.0669 7.58747C14.0756 7.37963 14.0801 7.15484 14.0801 6.92154C14.0801 6.68825 14.0669 6.50586 14.0364 6.37013C14.0058 6.23865 13.9622 6.10714 13.9055 5.98414C13.849 5.86111 13.7617 5.76354 13.6483 5.69147C13.5351 5.6236 13.3955 5.56845 13.2299 5.52603C12.7896 5.42848 12.2315 5.37758 11.5515 5.36907C10.0082 5.3521 9.01866 5.44967 8.57836 5.66175C8.40398 5.75084 8.24705 5.8696 8.10752 6.02651C7.9593 6.20469 7.93753 6.30221 8.04652 6.3192C8.54346 6.39129 8.89659 6.5652 9.10584 6.84092L9.17995 6.98513C9.2366 7.09116 9.29766 7.27782 9.35433 7.54079C9.411 7.80802 9.45023 8.10068 9.46767 8.42307C9.50691 9.01264 9.50691 9.51739 9.46767 9.93732C9.42408 10.3572 9.38487 10.6838 9.34997 10.9171C9.31073 11.1504 9.25844 11.3414 9.17998 11.4855C9.10587 11.6297 9.05355 11.7188 9.03176 11.7527C9.00558 11.7867 8.98814 11.8036 8.9707 11.8121C8.86172 11.8503 8.75273 11.8715 8.63503 11.8715C8.51733 11.8715 8.37783 11.8164 8.21217 11.7018C8.04652 11.5873 7.87212 11.4346 7.69774 11.2353C7.51901 11.0359 7.31845 10.7602 7.09177 10.4039C6.86946 10.0476 6.63403 9.62768 6.39427 9.14415L6.19373 8.79209C6.06729 8.56728 5.89727 8.23643 5.68366 7.80378C5.4657 7.37115 5.27824 6.95546 5.11256 6.54826C5.04717 6.37859 4.94691 6.25135 4.81177 6.16226L4.75073 6.12408C4.7115 6.09015 4.64175 6.05623 4.5502 6.02227C4.45866 5.98411 4.36275 5.95864 4.26246 5.94169L0.853362 5.96712C0.504595 5.96712 0.269198 6.04348 0.14278 6.19618L0.0948277 6.26829C0.0599487 6.32344 0.046875 6.38705 0.046875 6.47611C0.046875 6.56518 0.0730226 6.6755 0.120975 6.80274C0.617962 7.94375 1.16288 9.03809 1.74707 10.0985C2.33123 11.159 2.84128 12.0072 3.27286 12.652C3.70446 13.2967 4.14473 13.9075 4.59377 14.4801C5.04281 15.0528 5.33927 15.4218 5.48311 15.5829C5.62697 15.7442 5.7447 15.8671 5.82752 15.9478L6.13704 16.2404C6.33757 16.4355 6.62967 16.6645 7.01327 16.936C7.40128 17.2075 7.8285 17.4748 8.29495 17.7376C8.76577 18.0006 9.31071 18.2127 9.92974 18.3782C10.5532 18.5437 11.1591 18.6115 11.7477 18.5776H13.1775C13.4696 18.5522 13.6877 18.463 13.8358 18.3103L13.8838 18.2509C13.9187 18.2042 13.9492 18.1279 13.9754 18.0261C14.0058 17.9243 14.019 17.814 14.019 17.6911C14.0102 17.3432 14.0364 17.0293 14.1018 16.7536C14.1628 16.4737 14.2326 16.2658 14.3153 16.1259C14.3938 15.9859 14.4854 15.8671 14.5813 15.7695C14.6816 15.672 14.7513 15.6126 14.7949 15.5956C14.8341 15.5744 14.8691 15.5617 14.8952 15.5532C15.0958 15.4896 15.3267 15.5532 15.5971 15.7398C15.8673 15.9307 16.1201 16.164 16.3556 16.444C16.591 16.7239 16.8744 17.0336 17.2101 17.3814C17.5414 17.7292 17.8335 17.9879 18.0818 18.1576L18.3304 18.3018C18.4961 18.3993 18.7141 18.4885 18.9799 18.5691C19.2459 18.6497 19.477 18.6709 19.6775 18.6284L22.8643 18.5817C23.1781 18.5817 23.4267 18.5308 23.5966 18.4291C23.771 18.3273 23.8755 18.217 23.9062 18.0939C23.9409 17.971 23.9409 17.8352 23.9105 17.6826C23.8845 17.5255 23.854 17.4194 23.8277 17.3559V17.356Z" fill="currentColor"/>
	</symbol>
</svg>

