<svg width="24" height="24" viewBox="0 0 24 24" fill="none" xmlns="http://www.w3.org/2000/svg">
<path d="M9.77035 16.4977C8.7532 16.251 7.37027 15.798 6.47358 15.2924C5.81332 14.9203 5.51892 14.2854 5.70181 13.6302C5.87133 13.0195 6.49589 12.5382 7.23645 12.5341C7.54425 12.5341 7.88775 12.6312 8.15988 12.7769C9.11454 13.2864 10.1317 13.6221 11.2336 13.7232C12.8663 13.8769 14.3966 13.5695 15.7929 12.7849C16.5646 12.3522 17.4256 12.514 17.9385 13.0276C18.5631 13.6504 18.4695 14.6898 17.7067 15.171C16.7654 15.7698 15.3467 16.2348 14.2404 16.4977C15.2352 17.3996 16.4442 18.5037 17.4345 19.4137C18.3044 20.2105 17.9921 21.5087 16.8412 21.8686C16.2032 22.0667 15.6188 21.9454 15.1371 21.5127C14.1556 20.631 13.1786 19.7413 12.2016 18.8556C11.9964 18.6695 11.9964 18.6695 11.7868 18.8556C10.8187 19.7333 9.85507 20.6108 8.88258 21.4844C8.21339 22.0829 7.22304 22.1112 6.57617 21.5613C5.90255 20.987 5.88026 20.0406 6.54495 19.4299C7.53975 18.5199 8.77102 17.4036 9.77035 16.4977Z" fill="white"/>
<path d="M6.35861 7.1674C6.30953 4.42533 8.84345 2.027 12.0242 2.03911C15.1068 2.05125 17.6585 4.33631 17.6585 7.1674C17.6585 10.0228 15.0621 12.2795 12.0153 12.2876C8.91925 12.2958 6.31843 9.96612 6.35858 7.1674H6.35861ZM9.6241 7.16339C9.56612 8.31602 10.7036 9.33926 11.9885 9.32712C13.3268 9.31095 14.393 8.37265 14.3975 7.17148C14.3975 5.97028 13.3312 5.00367 12.0107 4.99559C10.6457 4.9875 9.5661 6.05116 9.62408 7.16339H9.6241Z" fill="white"/>
</svg>
