<svg width="24" height="24" viewBox="0 0 24 24" fill="none" xmlns="http://www.w3.org/2000/svg">
<path d="M11.4969 17.0774C10.6694 17.8799 9.849 18.669 9.03628 19.4642C8.75213 19.7428 8.43267 19.8968 8.02484 19.8754C7.74642 19.8608 7.59075 19.739 7.5053 19.4761C6.88259 17.5523 6.2508 15.6334 5.63145 13.7076C5.57128 13.5208 5.48245 13.43 5.2924 13.3716C3.8254 12.9256 2.36126 12.4694 0.899536 12.0068C0.674623 11.9355 0.447778 11.8423 0.253442 11.7106C-0.0469171 11.5081 -0.090869 11.1777 0.178471 10.9401C0.427259 10.7209 0.724296 10.5298 1.03278 10.4081C2.82593 9.70082 4.62863 9.01624 6.42846 8.32556C10.9961 6.57004 15.5638 4.81596 20.1318 3.06046C21.0005 2.72629 21.668 3.19687 21.5778 4.13193C21.52 4.72994 21.3643 5.31843 21.2387 5.90882C20.2468 10.5707 19.2541 15.2331 18.257 19.894C18.0201 21.0006 17.2394 21.2897 16.3244 20.618C14.792 19.4937 13.2611 18.3658 11.7296 17.2395C11.6566 17.1869 11.5806 17.1359 11.4969 17.0774ZM8.05734 18.493C8.07455 18.4882 8.09173 18.4837 8.10891 18.4792C8.11849 18.4356 8.13225 18.3927 8.13616 18.3495C8.23451 17.2928 8.33866 16.2365 8.42407 15.1778C8.44324 14.9421 8.52431 14.7748 8.70253 14.616C10.1151 13.3586 11.5189 12.0932 12.9258 10.8307C14.4831 9.4326 16.0408 8.03601 17.5923 6.63227C17.6883 6.54576 17.7285 6.39839 17.7943 6.2786C17.6482 6.26292 17.4915 6.20444 17.3588 6.23866C17.1777 6.28525 17.0064 6.38983 16.8449 6.49108C13.4081 8.6459 9.97418 10.8046 6.53494 12.955C6.34057 13.0768 6.30427 13.1799 6.37828 13.3923C6.63185 14.1173 6.86248 14.8489 7.10175 15.5791C7.42027 16.5507 7.73878 17.5219 8.05732 18.493H8.05734Z" fill="white"/>
</svg>
