<svg width="24" height="24" viewBox="0 0 24 24" fill="none" xmlns="http://www.w3.org/2000/svg">
<path d="M7.6399 20.858C16.494 20.858 21.3341 14.0431 21.3341 8.13485C21.3341 7.94473 21.3262 7.74731 21.3184 7.55719C22.2549 6.92834 23.0734 6.13864 23.7188 5.23925C22.853 5.59754 21.9322 5.83151 20.9563 5.9412C21.948 5.38547 22.7114 4.51531 23.0734 3.46967C22.1447 3.98153 21.1137 4.35443 20.0197 4.55187C19.1383 3.68173 17.8948 3.14062 16.5097 3.14062C13.8494 3.14062 11.701 5.14417 11.701 7.60839C11.701 7.95936 11.7402 8.30304 11.8269 8.62477C7.8288 8.43466 4.27934 6.65778 1.91041 3.9523C1.49329 4.6104 1.25718 5.37819 1.25718 6.19714C1.25718 7.74732 2.10715 9.11468 3.39785 9.91903C2.61084 9.89707 1.86316 9.69234 1.21781 9.36331C1.21781 9.38524 1.21781 9.39984 1.21781 9.42181C1.21781 11.5862 2.87843 13.3923 5.08209 13.8018C4.6807 13.9042 4.25571 13.9627 3.81497 13.9627C3.50803 13.9627 3.20109 13.9334 2.90991 13.8822C3.52378 15.6591 5.30245 16.9534 7.40379 16.9898C5.75892 18.1892 3.68116 18.9056 1.4303 18.9056C1.04466 18.9056 0.659018 18.8838 0.28125 18.8472C2.39046 20.1122 4.92466 20.8507 7.63987 20.858H7.6399Z" fill="white"/>
</svg>
