<?xml version="1.0" encoding="utf-8"?>
<!-- Generator: Adobe Illustrator 22.0.1, SVG Export Plug-In . SVG Version: 6.00 Build 0)  -->
<svg version="1.1" id="Layer_1" xmlns="http://www.w3.org/2000/svg" xmlns:xlink="http://www.w3.org/1999/xlink" x="0px" y="0px"
	 viewBox="0 0 300 150.7" style="enable-background:new 0 0 300 150.7;" xml:space="preserve">
<style type="text/css">
	.st0{fill:#FFFFFF;}
	.st1{fill:#FFBE00;}
	.st2{fill-rule:evenodd;clip-rule:evenodd;fill:#FFBE00;}
</style>
<g>
	<g>
		<path class="st0" d="M38.8,101.1V45.2h16.4c3.4,0,6.1,0.6,8.2,1.9c2.1,1.2,3.6,3,4.6,5.4c1,2.4,1.5,5.2,1.5,8.6
			c0,3.6-0.6,6.6-1.9,8.8c-1.2,2.2-3,3.9-5.2,4.9c-2.2,1-4.9,1.5-7.9,1.5H49v24.8H38.8z M49,69.1h3.9c1.8,0,3.3-0.3,4.3-0.8
			c1-0.5,1.7-1.4,2.1-2.6c0.4-1.2,0.6-2.7,0.6-4.7c0-2-0.2-3.7-0.4-4.9c-0.3-1.3-0.9-2.2-1.9-2.8c-1-0.6-2.5-0.9-4.7-0.9H49V69.1z"
			/>
		<path class="st0" d="M76.6,101.1V45.2H90c3.8,0,7,0.4,9.6,1.3c2.6,0.9,4.6,2.4,5.9,4.6c1.4,2.2,2,5.1,2,8.8c0,2.3-0.2,4.3-0.6,6.1
			c-0.4,1.8-1.1,3.3-2.1,4.6c-1,1.3-2.4,2.2-4.1,2.9l7.8,27.5H98.3l-6.8-25.6h-4.7v25.6H76.6z M86.8,69.1H90c2,0,3.6-0.3,4.7-0.9
			c1.2-0.6,2-1.5,2.5-2.8c0.5-1.3,0.8-2.9,0.8-4.9c0-2.8-0.5-4.9-1.6-6.3c-1-1.4-3-2.1-5.9-2.1h-3.7V69.1z"/>
		<path class="st0" d="M116.9,101.1V45.2h23.5v7.2h-13.3v16.1h10.4v7.1h-10.4V94h13.4v7H116.9z"/>
		<path class="st0" d="M162.3,101.8c-3.4,0-6.2-0.7-8.4-2c-2.3-1.3-4-3.2-5.1-5.8c-1.1-2.5-1.8-5.6-1.9-9.3l8.8-1.7
			c0.1,2.2,0.4,4.1,0.8,5.7c0.4,1.7,1.1,2.9,2,3.8c0.9,0.9,2.1,1.3,3.6,1.3c1.7,0,2.8-0.5,3.5-1.5c0.7-1,1-2.2,1-3.8
			c0-2.4-0.6-4.4-1.7-6c-1.1-1.6-2.6-3.1-4.4-4.7l-7-6.2c-2-1.7-3.6-3.6-4.7-5.7c-1.2-2.1-1.8-4.7-1.8-7.8c0-4.4,1.3-7.8,3.9-10.2
			c2.6-2.4,6.1-3.6,10.6-3.6c2.6,0,4.8,0.4,6.6,1.2c1.7,0.8,3.1,1.9,4.2,3.3c1,1.4,1.8,3,2.3,4.9c0.5,1.8,0.8,3.7,1,5.8l-8.7,1.5
			c-0.1-1.7-0.3-3.3-0.6-4.7c-0.3-1.4-0.8-2.5-1.6-3.2c-0.8-0.8-1.9-1.2-3.3-1.2c-1.5,0-2.7,0.5-3.5,1.5c-0.8,1-1.2,2.2-1.2,3.7
			c0,1.9,0.4,3.4,1.2,4.7c0.8,1.2,1.9,2.5,3.4,3.8l7,6.1c2.3,1.9,4.3,4.2,5.9,6.8c1.6,2.6,2.5,5.7,2.5,9.4c0,2.7-0.6,5-1.8,7.1
			c-1.2,2.1-2.8,3.7-4.9,4.9C167.5,101.2,165.1,101.8,162.3,101.8z"/>
		<path class="st0" d="M189.6,101.1V52.7h-8.9v-7.5h27.9v7.5h-8.8v48.4H189.6z"/>
		<path class="st0" d="M215.7,101.1V45.2h10.1v55.9H215.7z"/>
		<path class="st0" d="M250.1,101.8c-3.7,0-6.6-0.8-8.8-2.3c-2.2-1.6-3.7-3.8-4.7-6.7c-0.9-2.9-1.4-6.3-1.4-10.2V63.9
			c0-4,0.5-7.5,1.4-10.4c0.9-2.9,2.5-5.1,4.9-6.7c2.3-1.5,5.5-2.3,9.6-2.3c3.8,0,6.9,0.6,9.1,1.9c2.3,1.3,3.9,3.1,4.9,5.6
			c1,2.4,1.5,5.3,1.5,8.8v2.9h-9.7v-3.2c0-1.8-0.1-3.3-0.4-4.6c-0.3-1.3-0.8-2.3-1.5-2.9c-0.8-0.7-2-1-3.7-1c-1.8,0-3.1,0.4-3.9,1.3
			c-0.8,0.9-1.3,2-1.5,3.5c-0.2,1.4-0.3,3-0.3,4.7v23.4c0,1.9,0.2,3.6,0.5,5c0.3,1.4,0.9,2.5,1.8,3.3c0.9,0.8,2.1,1.1,3.7,1.1
			c1.7,0,2.9-0.4,3.8-1.2c0.9-0.8,1.5-2,1.8-3.5s0.5-3.2,0.5-5.2v-5.2h-6v-6.4h15.2v28.4h-6.6l-0.8-5.5c-0.7,1.8-1.9,3.3-3.3,4.5
			C254.7,101.2,252.7,101.8,250.1,101.8z"/>
		<path class="st0" d="M276.4,101.1V45.2h23.5v7.2h-13.3v16.1H297v7.1h-10.4V94H300v7H276.4z"/>
	</g>
	<g>
		<path class="st1" d="M164.6,102.8c-0.9,0.6-1.9,0.9-2.9,0.9c-0.8,0-1.5-0.2-2-0.7c-0.6-0.4-1-0.9-1.4-1.5
			c-0.3-0.6-0.6-1.1-0.7-1.7c-0.1-0.6-0.1-1,0.1-1.2c0.8-0.4,1.6-0.8,2.5-1.3c0.9-0.5,1.7-1.1,2.4-1.6c0.7-0.6,1.4-1.2,1.9-1.9
			s0.9-1.4,1-2.1c0.1-0.4,0-0.7-0.3-1c-0.3-0.3-0.8-0.5-1.6-0.6c-0.3-0.1-0.6-0.1-0.8-0.1c-0.3,0-0.6,0-0.8,0
			c-1.2,0-2.6,0.1-4.1,0.4c-1.5,0.3-3,0.6-4.6,1.1c-1.5,0.5-3.1,1.1-4.5,1.9c-1.5,0.7-2.8,1.6-4,2.6c-1.2,1-2.1,2.1-2.9,3.3
			c-0.7,1.2-1.2,2.5-1.3,3.9c-0.1,0.9,0,1.9,0.2,2.8c0.2,0.9,0.5,1.8,1,2.7s0.9,1.8,1.4,2.6c0.5,0.9,1.1,1.7,1.7,2.6
			c0.7,1.1,1.4,2.2,2.1,3.3c0.7,1.1,1.2,2.2,1.7,3.4c0.4,1.2,0.7,2.4,0.9,3.7c0.2,1.3,0.1,2.7-0.3,4.1c-0.6,2.1-1.7,4.2-3.4,6.4
			c-1.7,2.2-3.7,4.2-6.1,5.9c-2.4,1.8-5,3.2-7.8,4.3c-2.8,1.1-5.6,1.6-8.4,1.5c-1.5-0.1-3.1-0.5-4.8-1.1c-1.7-0.6-3.2-1.4-4.6-2.5
			c-1.4-1.1-2.5-2.4-3.3-3.9c-0.8-1.5-1.1-3.3-0.8-5.4c0.3-2.2,1.1-4.4,2.4-6.4c1.3-2.1,3.4-4.1,6.3-6l-0.2,0.1
			c0.3-0.2,0.8-0.2,1.6,0.2c0.8,0.3,1.6,0.8,2.4,1.4c0.8,0.6,1.5,1.2,2.1,1.8c0.6,0.6,0.8,1.1,0.7,1.4l-1.5,0.8
			c-0.8,0.4-1.6,0.9-2.4,1.3s-1.5,1-2.2,1.5c-0.7,0.6-1.3,1.2-1.7,1.9c-0.5,0.7-0.8,1.5-0.9,2.4c-0.2,1.4-0.1,2.5,0.3,3.4
			c0.4,0.9,1.1,1.5,1.9,2c0.9,0.5,1.8,0.8,2.9,1c1.1,0.2,2.2,0.3,3.4,0.3c2,0,3.8-0.3,5.6-0.9c1.8-0.6,3.3-1.4,4.7-2.4
			c1.4-1,2.5-2.3,3.4-3.8c0.9-1.5,1.5-3.2,1.8-5.1c0.1-0.9,0.1-1.9-0.1-2.8c-0.2-0.9-0.5-1.8-0.9-2.6c-0.4-0.9-0.9-1.7-1.5-2.5
			c-0.6-0.8-1.2-1.6-1.7-2.4c-0.7-1-1.4-2-2-2.9c-0.7-1-1.2-2-1.6-3.1c-0.4-1.1-0.7-2.2-0.9-3.3c-0.1-1.1,0-2.4,0.3-3.7
			c0.5-1.9,1.4-3.8,2.6-5.5c1.2-1.8,2.7-3.4,4.4-5c1.7-1.5,3.6-2.9,5.7-4.2c2.1-1.3,4.3-2.3,6.5-3.2c2.2-0.9,4.5-1.5,6.7-2
			c2.2-0.4,4.4-0.6,6.4-0.5c1.3,0.1,2.3,0.4,3,0.8c0.8,0.4,1.4,1,1.8,1.7c0.4,0.7,0.7,1.5,0.8,2.4c0.1,0.9,0,1.9-0.1,2.9
			c-0.4,2.2-1,4.1-2,5.8c-0.9,1.7-2.1,3.2-3.4,4.6L164.6,102.8z"/>
		<path class="st1" d="M162.1,109.2c0.4-0.2,0.9-0.2,1.5-0.1c0.6,0.2,1.1,0.4,1.7,0.8c0.6,0.4,1.1,0.9,1.5,1.4
			c0.4,0.6,0.7,1.1,0.9,1.8c1.8-1.3,3.6-2.4,5.5-3.2c1.9-0.8,3.6-1.1,5.2-0.9c1.1,0.2,2,0.5,2.6,1c0.7,0.5,1.2,1.1,1.5,1.8
			c0.3,0.7,0.5,1.5,0.6,2.4c0,0.9,0,1.8-0.2,2.8c-0.3,1.6-0.7,3.2-1.4,4.7c-1,2.2-2.2,4.3-3.7,6.3c-1.5,2.1-3.2,3.9-4.9,5.6
			c-1.8,1.7-3.7,3-5.7,4.1c-2,1.1-3.9,1.7-5.8,2c-1.6,0-2.9-0.4-3.8-1.1c-0.9-0.7-1.6-1.5-2-2.5c-0.5,1.1-0.9,2.2-1.3,3.2
			c-0.3,1.1-0.7,2.2-1,3.3c-0.3,1.1-0.6,2.3-0.9,3.5c-0.3,1.2-0.6,2.5-0.9,3.8c-0.1,0.4-0.5,0.6-1,0.6c-0.6,0-1.2-0.1-1.8-0.4
			s-1.2-0.7-1.7-1.1c-0.5-0.5-0.8-0.9-0.8-1.4c0.1-2.6,0.6-5.2,1.4-7.7c0.8-2.5,1.7-4.9,2.8-7.3c1.1-2.4,2.3-4.8,3.6-7.1
			c1.3-2.4,2.6-4.8,4-7.2c0.8-1.7,1.6-3.3,2.4-4.8C160.9,112,161.5,110.5,162.1,109.2z M159.9,128.6c-0.1,0.1-0.1,0.1-0.1,0.2
			c-0.1,0.2-0.1,0.4-0.2,0.7c-0.1,0.2-0.1,0.5-0.2,0.7c-0.1,0.8-0.1,1.5,0.1,2.1c0.2,0.6,0.7,0.9,1.5,1c0.8,0.1,1.6-0.2,2.7-0.7
			c1-0.6,2-1.3,3.1-2.3c1.1-1,2.2-2.1,3.2-3.3c1.1-1.2,2.1-2.5,2.9-3.8c0.9-1.3,1.6-2.5,2.2-3.7c0.6-1.2,1-2.3,1.1-3.2
			c0.2-1.1-0.2-1.6-1-1.7c-0.8,0-1.6,0.1-2.5,0.4c-0.9,0.3-1.9,0.7-2.8,1.2c-1,0.5-1.9,1.2-2.9,2s-1.9,1.6-2.7,2.4
			c-0.7,1.3-1.4,2.6-2.2,4C161.3,125.9,160.6,127.3,159.9,128.6L159.9,128.6z"/>
		<path class="st1" d="M192.4,109c0.5-0.2,1.1-0.2,1.8,0.1c0.7,0.3,1.3,0.8,1.8,1.5c0.5,0.6,0.9,1.4,1.1,2.2
			c0.2,0.9,0.1,1.7-0.4,2.5c0.1-0.1,0,0-0.1,0.2c-0.1,0.2-0.3,0.5-0.6,0.8c-0.2,0.3-0.5,0.7-0.8,1.2s-0.6,0.9-0.8,1.2
			c-0.6,0.9-1.3,1.9-2.1,3c-0.7,1.1-1.5,2.2-2.2,3.3c-0.7,1.1-1.5,2.2-2.1,3.3c-0.7,1.1-1.3,2-1.7,2.9c-0.5,0.8-0.8,1.5-1,2
			s-0.2,0.8,0,0.8h0.4c1.1-0.3,2.2-0.9,3.3-1.7c1.1-0.8,2.1-1.7,3.1-2.7c1-1,2-2.1,2.9-3.2c0.9-1.1,1.8-2.2,2.7-3.3l0.9-1.2
			c0.2-0.2,0.5-0.3,0.8-0.1c0.3,0.1,0.7,0.3,1,0.6c0.3,0.3,0.5,0.6,0.7,1c0.1,0.4,0.1,0.7-0.1,0.9l0.1-0.1c-1.7,2.3-3.7,4.6-5.8,6.9
			c-2.2,2.3-4.3,4.4-6.5,6.2c-0.3,0.2-0.8,0.5-1.3,0.9c-0.5,0.3-1.1,0.6-1.6,0.9c-0.6,0.3-1.2,0.5-1.9,0.7c-0.7,0.2-1.3,0.3-1.9,0.3
			c-1.4,0-2.3-0.6-2.7-1.6c-0.5-1-0.6-2.3-0.3-3.8c0.2-1.2,0.6-2.4,1.1-3.5l-0.1,0.1c0.7-1.7,1.7-3.8,3-6c1.3-2.3,2.6-4.6,4-6.9
			c0.9-1.6,1.8-3.1,2.6-4.6c0.9-1.5,1.6-2.8,2.2-4L192.4,109z M200.3,93c0.4-0.1,0.9,0.2,1.5,0.7c0.6,0.5,1.1,1.2,1.6,1.9
			c0.5,0.7,0.9,1.4,1.3,2.1c0.3,0.7,0.5,1.2,0.4,1.5c-0.4,1-0.8,1.9-1.3,2.7c-0.5,0.8-0.9,1.5-1.4,2.3c-0.5,0.8-1,1.6-1.5,2.4
			c-0.5,0.8-1,1.8-1.5,2.9c-0.4-0.1-0.9-0.4-1.3-0.8c-0.5-0.4-0.9-0.9-1.3-1.4c-0.4-0.5-0.7-1.1-0.9-1.6c-0.2-0.6-0.3-1-0.2-1.4
			c0.2-0.7,0.4-1.5,0.7-2.3c0.3-0.8,0.6-1.7,1-2.6c0.4-0.9,0.7-1.8,1.1-2.8c0.3-0.9,0.6-1.8,0.8-2.7L200.3,93z"/>
		<path class="st1" d="M224.5,128.6c-0.7,0.9-1.5,2-2.6,3.3c-1.1,1.3-2.3,2.5-3.5,3.8c-1.3,1.2-2.6,2.3-3.9,3.1
			c-1.3,0.9-2.6,1.3-3.8,1.3c-0.7,0-1.4-0.1-2.1-0.4c-0.7-0.3-1.2-0.7-1.6-1.2s-0.7-1.3-0.9-2.2c-0.2-0.9-0.1-1.9,0.1-3.2
			c0.2-1,0.5-2.1,0.9-3.1c0.4-1,0.8-2.1,1.4-3.2c0.5-1.1,1.2-2.3,1.9-3.6c0.7-1.3,1.5-2.8,2.4-4.4c0.4-0.7,0.8-1.3,1-2
			c0.3-0.6,0.4-1.1,0.5-1.5l-2.5,2.1c-1.5,1.2-2.8,2.4-4,3.6c-1.2,1.2-2.5,2.6-3.8,4c-1.2,2.2-2.2,4.4-3.2,6.6
			c-0.9,2.2-1.7,4.5-2.3,6.8c-0.1,0.4-0.5,0.6-1.1,0.5c-0.6,0-1.2-0.2-1.8-0.5c-0.6-0.3-1.2-0.7-1.7-1.1c-0.5-0.5-0.7-0.9-0.7-1.4
			c0.3-1.6,0.7-3.1,1.2-4.6c0.5-1.5,1.1-2.9,1.7-4.4c0.6-1.4,1.3-2.9,2-4.3c0.7-1.4,1.4-2.8,2.2-4.2c0.8-1.7,1.7-3.3,2.5-4.9
			c0.8-1.6,1.5-3.1,2.1-4.6c0.4-0.2,0.9-0.2,1.5,0s1.2,0.5,1.7,0.9c0.6,0.4,1,0.9,1.5,1.5s0.7,1.2,0.8,1.9c1.5-1.3,3-2.3,4.5-3.2
			c1.5-0.9,3.1-1.4,4.6-1.5c0.5,0,1,0.2,1.4,0.7c0.5,0.4,0.9,1,1.2,1.6c0.3,0.6,0.6,1.3,0.7,2c0.1,0.7,0,1.4-0.2,1.9
			c-0.9,1.8-1.8,3.4-2.7,5c-0.9,1.5-1.6,2.9-2.2,4c-0.6,1-1.1,1.9-1.5,2.7c-0.5,0.8-0.9,1.6-1.2,2.4c-0.4,0.8-0.7,1.6-1,2.4
			s-0.6,1.7-0.8,2.7c0-0.1,0.2-0.2,0.4-0.3h-0.1c1-0.5,2.3-1.4,3.9-2.7c1.5-1.3,3.1-3,4.8-5.1c0.5-0.6,0.9-1.1,1.3-1.6
			c0.4-0.5,0.8-1,1.2-1.6l1-1.5c0.1-0.2,0.4-0.2,0.8-0.1c0.4,0.1,0.7,0.3,1.1,0.5c0.3,0.2,0.6,0.5,0.8,0.9c0.2,0.3,0.2,0.6,0,0.9
			l0.1-0.1L224.5,128.6L224.5,128.6z"/>
	</g>
	<path class="st2" d="M35.2,0.1c2.1-0.4,4.1,1.1,4.5,3.2c0.4,2.1-1.1,4.1-3.2,4.5C34.3,8,32.3,6.6,32,4.5C31.6,2.4,33,0.4,35.2,0.1
		 M3.2,13.4c2.1-0.4,4.1,1.1,4.5,3.2C8,18.7,6.6,20.7,4.5,21c-2.1,0.4-4.1-1.1-4.5-3.2C-0.3,15.8,1.1,13.8,3.2,13.4z M69.7,2.1
		c2.1-0.4,4.1,1.1,4.5,3.2c0.4,2.1-1.1,4.1-3.2,4.5c-2.1,0.4-4.1-1.1-4.5-3.2C66.2,4.5,67.6,2.5,69.7,2.1z M21.5,46L6.7,20.8
		C25.3,35.9,35.4,32.6,37,10.9c8.7,19.9,19.3,19.7,31.9-0.7l-5.4,27.2c-7-1.9-14.2-2-22.2-0.4C33.8,38.5,27.1,41.7,21.5,46z"/>
</g>
</svg>
